<svg id="Layer_1" enable-background="new 0 0 511.98 511.98" height="512" viewBox="0 0 511.98 511.98" width="512" xmlns="http://www.w3.org/2000/svg"><g><g><g><path d="m431.799 146.626c8.178-29.459-34.136-29.839-26.489-.238-7.647-29.601-44.481-8.773-23.059 13.039-21.422-21.812-42.908 14.644-13.451 22.822-29.458-8.178-29.838 34.137-.238 26.49-29.6 7.647-8.773 44.483 13.038 23.06-21.811 21.423 14.643 42.91 22.821 13.451-8.178 29.459 34.136 29.839 26.489.238 7.647 29.601 44.481 8.773 23.059-13.039 21.422 21.812 42.909-14.644 13.451-22.822 29.458 8.178 29.838-34.137.238-26.49 29.6-7.647 8.773-44.483-13.038-23.06 21.811-21.422-14.643-42.909-22.821-13.451z" fill="#fee903"/></g><g><path d="m80.123 146.626c-8.178-29.459 34.136-29.839 26.489-.238 7.647-29.601 44.481-8.773 23.059 13.039 21.422-21.812 42.908 14.644 13.451 22.822 29.458-8.178 29.838 34.137.238 26.49 29.6 7.647 8.773 44.483-13.038 23.06 21.811 21.423-14.643 42.91-22.821 13.451 8.178 29.459-34.136 29.839-26.489.238-7.647 29.601-44.481 8.773-23.059-13.039-21.422 21.812-42.908-14.644-13.451-22.822-29.458 8.178-29.838-34.137-.238-26.49-29.6-7.647-8.773-44.483 13.038-23.06-21.811-21.422 14.644-42.909 22.821-13.451z" fill="#fee903"/></g><g><g><path d="m437.085 267.751c0-99.812-80.91-180.725-180.718-180.725s-180.718 80.913-180.718 180.725c0 63.132 32.377 118.692 81.424 151.01v48.319c0 20.656 16.744 37.4 37.399 37.4h123.79c20.655 0 37.399-16.745 37.399-37.4v-48.319c49.047-32.318 81.424-87.879 81.424-151.01z" fill="#f9f3f1"/><path d="m256.367 87.026c-6.761 0-13.432.384-20 1.107 90.395 9.954 160.718 86.568 160.718 179.618 0 60.427-29.663 113.918-75.214 146.73-3.929 2.83-6.21 7.416-6.21 12.258v40.341c0 20.656-16.744 37.4-37.399 37.4h40c20.655 0 37.399-16.744 37.399-37.399v-48.32c49.047-32.318 81.424-87.878 81.424-151.01 0-99.812-80.91-180.725-180.718-180.725z" fill="#f3eae6"/><g fill="#af66da"><g><circle cx="180.503" cy="297.88" r="62.973"/><path d="m180.503 234.907c-6.994 0-13.714 1.157-20 3.262 24.971 8.361 42.973 31.926 42.973 59.711s-18.002 51.35-42.973 59.711c6.286 2.105 13.006 3.262 20 3.262 34.779 0 62.973-28.194 62.973-62.973s-28.194-62.973-62.973-62.973z"/><circle cx="332.23" cy="297.88" r="62.973"/><path d="m332.23 234.907c-6.994 0-13.714 1.157-20 3.262 24.971 8.361 42.973 31.926 42.973 59.711s-18.002 51.35-42.973 59.711c6.286 2.105 13.006 3.262 20 3.262 34.779 0 62.973-28.194 62.973-62.973s-28.194-62.973-62.973-62.973z"/></g><path d="m246.253 360.575c4.495-7.786 15.733-7.786 20.228 0l5.718 9.904 5.718 9.904c4.495 7.786-1.124 17.519-10.114 17.519h-11.436-11.436c-8.99 0-14.609-9.733-10.114-17.519l5.718-9.904z"/></g></g><g><g><g><g><g><g><path d="m472.142 108.232s-24.323-24.44-63.523-15.573c-36.907 8.348-50.638 41.395-50.638 41.395s29.137 23.351 63.523 15.573 50.638-41.395 50.638-41.395z" fill="#bbec6c"/></g></g></g><g><g><g><path d="m363.926 110.215s24.886-4.859 35.512-32.438c10.005-25.967-4.566-47.881-4.566-47.881s-26.191 8.246-35.512 32.438 4.566 47.881 4.566 47.881z" fill="#bbec6c"/></g></g></g><g><path d="m334.463 106.76c-41.618-47.796-73.388 44.412-11.162 32.398-62.226 12.015 1.936 85.7 22.543 25.89-20.607 59.811 75.324 41.288 33.706-6.508 41.618 47.796 73.388-44.412 11.162-32.398 62.226-12.015-1.936-85.7-22.543-25.89 20.607-59.811-75.324-41.288-33.706 6.508z" fill="#fe5694"/></g></g></g><g><g><g><g><g><path d="m40.239 108.232s24.323-24.44 63.523-15.573c36.907 8.348 50.638 41.395 50.638 41.395s-29.137 23.351-63.523 15.573-50.638-41.395-50.638-41.395z" fill="#bbec6c"/></g></g></g><g><g><g><path d="m148.455 110.215s-24.886-4.859-35.512-32.438c-10.005-25.967 4.566-47.881 4.566-47.881s26.191 8.246 35.512 32.438-4.566 47.881-4.566 47.881z" fill="#bbec6c"/></g></g></g><g><path d="m177.918 106.76c41.618-47.796 73.388 44.412 11.162 32.398 62.226 12.015-1.936 85.7-22.543 25.89 20.607 59.811-75.324 41.288-33.706-6.508-41.618 47.796-73.388-44.412-11.162-32.398-62.226-12.015 1.936-85.7 22.543-25.89-20.607-59.811 75.324-41.288 33.706 6.508z" fill="#fe5694"/></g></g></g></g><g><g><path d="m272.595 34.616c9.694-36.181-42.15-36.181-32.455 0-9.694-36.181-54.593-10.258-28.107 16.228-26.486-26.487-52.408 18.413-16.228 28.108-36.18-9.695-36.18 42.151 0 32.457-36.18 9.695-10.258 54.595 16.228 28.108-26.486 26.487 18.413 52.41 28.107 16.228-9.694 36.181 42.15 36.181 32.455 0 9.694 36.181 54.593 10.258 28.107-16.228 26.486 26.487 52.408-18.413 16.228-28.108 36.18 9.695 36.18-42.151 0-32.457 36.18-9.695 10.258-54.595-16.228-28.108 26.485-26.486-18.413-52.409-28.107-16.228z" fill="#c4e2ff"/></g><circle cx="256.367" cy="95.181" fill="#fee903" r="29.575"/></g></g></g><g><path d="m493.392 184.047c-1.684-2.452-3.797-4.442-6.248-5.944 7.356-12.702-1.931-31.895-18.173-32.128-.023-3.993-1.42-8.89-5.043-13.429 9.756-10.492 14.606-20.304 14.966-21.049 1.386-2.867.81-6.298-1.437-8.556-.959-.964-23.177-22.8-59.542-19.35-2.631-3.531-5.896-6.612-9.563-8.976 7.263-26.589-6.599-47.915-7.235-48.872-1.85-2.781-5.314-4.005-8.498-3.001-1.146.361-26.804 8.7-38.437 32.731-4.036-.621-8.249-.504-12.374.324-1.456-7.909-6.691-15.019-14.092-18.47-3.606-1.682-7.431-2.398-11.307-2.189.208-3.876-.508-7.701-2.189-11.308-4.382-9.398-14.658-15.327-24.989-14.428-3.964.347-7.634 1.64-10.887 3.758-1.758-3.461-4.291-6.416-7.55-8.698-8.494-5.946-20.359-5.948-28.854 0-3.259 2.282-5.792 5.237-7.55 8.698-3.253-2.118-6.923-3.411-10.887-3.758-10.332-.892-20.606 5.029-24.989 14.428-1.682 3.605-2.397 7.432-2.189 11.308-3.875-.208-7.701.508-11.307 2.189-7.437 3.468-12.688 10.629-14.115 18.584-4.212-.872-8.534-1.001-12.676-.377-11.619-24.077-37.319-32.43-38.466-32.792-3.185-1.004-6.649.22-8.498 3.001-.636.957-14.498 22.284-7.235 48.872-3.666 2.363-6.932 5.445-9.563 8.976-36.36-3.451-58.582 18.387-59.542 19.35-2.247 2.258-2.823 5.688-1.437 8.556.358.74 5.136 10.414 14.749 20.818-2.674 3.56-5.077 7.153-5.285 13.66-14.676.238-26.34 18.09-18.172 32.129-12.846 7.497-13.47 29.067.332 36.907-7.126 12.829 2.501 31.851 18.741 31.797.424 11.025 10.978 22.561 24.301 20.687 0 .085-.003.17-.003.255 0 62.136 30.36 119.771 81.424 154.999v44.33c0 24.758 20.142 44.9 44.899 44.9h123.79c24.757 0 44.899-20.143 44.899-44.9v-44.33c51.064-35.227 81.424-92.863 81.424-154.999 0-.052-.001-.104-.001-.156 10.926.855 23.197-7.983 23.488-20.786 14.677.02 26.653-17.616 18.74-31.798 9.725-5.219 13.72-20.936 6.58-30.963zm-30.915-74.086c-4.629 7.23-14.769 20.541-30.467 28.091-1.698-6.309-6.808-13.578-14.37-17.119 5.044-5.744 8.214-13.916 6.679-22.702 18.478-.377 31.735 7.087 38.158 11.73zm-71.058-70.47c2.696 6.297 5.905 17.412 2.718 30.206-6.042-.44-11.861 1.144-17.017 4.654-2.082-6.486-5.919-10.613-9.063-13.062 5.971-11.668 16.736-18.511 23.362-21.798zm-32.641 33.581c5.519 4.238 6.335 13.023 2.299 24.737-2.788 8.851 10.228 14.105 14.191 4.86 2.557-7.409 8.401-19.572 18.869-17.89 7.871 1.251 15.437 9.942 15.568 17.884.175 10.558-12.716 14.628-20.416 16.114-8.845 1.732-7.327 15.863 2.844 14.729 7.725-1.49 21.247-2.511 25.047 7.405 2.615 7.982-.915 20.238-10.317 23.481-8.343 2.565-16.987-5.414-21.658-10.778-5.481-5.785-17.767.039-11.312 9.85 5.15 5.915 12.798 17.062 6.157 25.271-4.996 6.175-16.309 8.36-23.279 4.499-9.273-5.139-6.395-18.308-3.845-25.719 2.829-8.862-10.233-14.146-14.187-4.871-3.915 11.337-9.753 17.736-16.442 18.021-4.666.194-9.755-2.54-13.357-6.813 4.404-4.199 7.687-10.689 7.469-18.628 18.91 1.213 32.825-21.613 21.977-38.066 16.94-8.121 17.555-35.346 0-43.956 4.914-4.037 15.566-3.76 20.392-.13zm-167.421-22.152c4.463-2.082 9.921-.225 15.373 5.228 5.904 5.759 17.687-1.99 10.606-10.607-5.451-5.451-7.308-10.91-5.227-15.373 1.741-3.733 5.987-6.185 10.086-5.823 4.904.429 8.704 4.767 10.699 12.213 2.541 8.516 16.448 6.508 14.489-3.883-1.996-7.446-.873-13.103 3.16-15.927 3.375-2.361 8.273-2.36 11.647 0 4.033 2.824 5.155 8.48 3.159 15.927-2.509 7.993 11.184 13.944 14.489 3.883 1.995-7.446 5.795-11.784 10.699-12.213 4.111-.359 8.346 2.09 10.087 5.823 2.081 4.463.225 9.922-5.227 15.373-6.365 5.882 2.574 17.31 10.606 10.607 5.451-5.452 10.908-7.308 15.372-5.228 3.356 1.979 7.801 7.346 4.928 13.243-1.671 3.377-5.559 6.002-11.317 7.545-8.592 2.135-6.277 16.393 3.883 14.488 7.446-1.993 13.102-.873 15.926 3.159 2.363 3.375 2.363 8.274 0 11.648-2.824 4.033-8.48 5.155-15.926 3.16-8.378-2.285-13.844 10.852-3.883 14.488 7.447 1.996 11.784 5.796 12.213 10.701.359 4.104-2.09 8.346-5.824 10.087-4.46 2.082-9.921.225-15.372-5.228-5.904-5.758-17.687 1.99-10.606 10.607 5.451 5.451 7.308 10.911 5.227 15.373-2.134 2.964-3.397 5.585-10.087 5.824-4.904-.43-8.704-4.767-10.699-12.214-2.541-8.516-16.447-6.507-14.489 3.883 1.996 7.446.874 13.104-3.16 15.927-3.373 2.363-8.271 2.364-11.646 0-4.033-2.823-5.155-8.48-3.16-15.927 2.509-7.994-11.184-13.942-14.489-3.883-1.995 7.447-5.795 11.784-10.699 12.214-4.105.359-8.346-2.091-10.086-5.824-2.081-4.462-.225-9.922 5.227-15.373 6.365-5.882-2.574-17.31-10.606-10.607-5.451 5.453-10.91 7.307-15.373 5.228-3.733-1.741-6.183-5.983-5.824-10.088.429-4.904 4.766-8.704 12.213-10.7 8.592-2.135 6.277-16.394-3.883-14.488-7.445 1.995-13.102.874-15.926-3.16-2.363-3.374-2.363-8.273 0-11.648 2.823-4.031 8.481-5.155 15.926-3.159 8.379 2.289 13.843-10.853 3.883-14.488-5.018-1.345-8.616-3.511-10.566-6.28-2.832-4.011-1.909-11.183 4.177-14.508zm-17.111 22.115c.035.055.066.112.102.167-16.94 8.121-17.555 35.346 0 43.956-10.502 15.773 2.302 39.234 21.978 38.066-.151 5.821 1.502 12.643 7.282 18.44-3.597 4.374-8.748 7.186-13.491 7.001-6.711-.267-12.567-6.681-16.488-18.062-3.259-8.696-16.757-4.801-14.168 4.925 2.548 7.414 5.417 20.57-3.85 25.705-6.972 3.862-18.284 1.676-23.279-4.499-6.641-8.208 1.007-19.355 6.157-25.271 5.731-5.548-3.531-17.456-11.312-9.85-5.165 5.932-15.188 15.065-24.292 9.595-6.902-4.148-10.564-14.776-7.682-22.297 3.8-9.919 17.323-8.899 25.047-7.406 8.578 1.654 12.975-11.828 2.844-14.729-7.7-1.486-20.59-5.557-20.416-16.114.131-7.941 7.697-16.633 15.568-17.884 10.474-1.678 16.326 10.51 18.878 17.916 3.249 8.674 16.711 4.829 14.182-4.887-2.365-6.865-5.188-19.228 2.49-24.881 5.226-3.849 14.062-3.713 20.45.109zm-53.286-33.544c6.637 3.292 17.405 10.14 23.372 21.813-4.753 3.692-7.55 8.261-9.029 13.074-5.167-3.529-11.001-5.125-17.059-4.683-3.188-12.799.024-23.917 2.716-30.204zm-32.896 58.739c-1.401 6.693.971 16.769 6.679 22.703-6.186 3.167-12.228 8.954-14.371 17.119-15.701-7.551-25.842-20.864-30.467-28.089 6.436-4.653 19.689-12.112 38.159-11.733zm263.47 314.269c-2.106 1.388-3.374 3.741-3.374 6.263v48.318c0 16.487-13.413 29.9-29.899 29.9h-123.79c-16.486 0-29.899-13.413-29.899-29.9v-48.318c0-2.521-1.268-4.875-3.374-6.263-48.873-32.204-78.051-86.315-78.051-144.748 0-12.241 1.283-24.464 3.813-36.326 1.692-9.107-11.822-12.756-14.67-3.129-1.644 7.708-2.793 15.557-3.46 23.462-2.556 1.67-7.81.87-9.774-3.965-.811-2.892.697-6.475 4.244-10.086 6.003-6.15-2.645-17.259-10.7-10.513v.001c-2.302 2.342-6.786 5.983-10.953 4.09-2.51-1.144-4.24-4.079-4.024-6.828.358-4.568 5.72-6.724 8.884-7.603 8.572-2.197 6.132-16.447-4.013-14.453-3.163.879-8.868 1.796-11.531-1.935-1.602-2.245-1.633-5.652-.071-7.926 2.594-3.778 8.315-2.964 11.494-2.142 8.404 2.202 13.74-10.98 3.752-14.523-3.179-.821-8.579-2.88-9.019-7.44-.265-2.745 1.412-5.711 3.9-6.899 4.136-1.973 8.682 1.592 11.025 3.893 6.153 6 17.257-2.648 10.51-10.702-2.961-4.018-6.703-7.129-3.289-12.238 5.895 4.595 12.843 8.767 20.881 11.741 1.807 8.012 6.294 15.512 12.703 20.288-2.666 4.669-5.156 9.446-7.4 14.297-3.54 7.839 8.127 15.615 13.614 6.297 2.404-5.197 5.099-10.313 8.024-15.272 2.537.164 5.127-.036 7.737-.609-2.4 33.322 50.465 43.039 60.623 11.703 14.242 9.592 31.684 3.636 41.646-10.286 3.848.904 11.843.214 17.293-3.445 7.681 16.46 35.059 18.042 43.954 0 4.976 2.639 8.83 4.567 16.986 3.504 9.852 13.334 25.916 20.073 41.6 10.225 10.634 32.231 63.136 20.616 60.624-11.701 2.724.599 5.425.787 8.067.583 15.685 26.572 23.965 56.859 23.965 87.938.003 58.432-29.175 112.543-78.048 144.747zm129.423-212.033c-2.662 3.73-8.367 2.813-11.53 1.935-8.337-2.368-13.954 10.726-4.013 14.453 3.164.879 8.525 3.034 8.883 7.603.216 2.749-1.514 5.685-4.024 6.828-4.157 1.892-8.626-1.728-10.933-4.07-6.027-6.146-17.334 2.304-10.721 10.49 4.838 4.926 5.803 9.585 2.648 12.781-1.472 1.492-4.455 2.903-7.325 1.716-2.258-27.454-10.479-54.003-24.155-77.883 6.271-4.783 10.664-12.186 12.446-20.09 7.906-2.925 14.762-7.008 20.594-11.515 2.009 3.21 1.26 7.08-3.462 12.012-6.111 6.043 2.337 17.304 10.511 10.701 2.343-2.301 6.89-5.862 11.025-3.893 2.489 1.188 4.166 4.154 3.9 6.899-.44 4.561-5.839 6.619-9.019 7.44-8.623 2.08-6.414 16.328 3.752 14.523 3.178-.822 8.9-1.637 11.494 2.142 1.561 2.276 1.531 5.683-.071 7.928z"/><path d="m317.671 438.765h-14.734v-12.809c0-4.143-3.358-7.5-7.5-7.5s-7.5 3.357-7.5 7.5v12.809h-24.069v-12.809c0-4.143-3.358-7.5-7.5-7.5s-7.5 3.357-7.5 7.5v12.809h-24.069v-12.809c0-4.143-3.358-7.5-7.5-7.5s-7.5 3.357-7.5 7.5v12.809h-14.734c-4.142 0-7.5 3.357-7.5 7.5s3.358 7.5 7.5 7.5h14.734v12.808c0 4.143 3.358 7.5 7.5 7.5s7.5-3.357 7.5-7.5v-12.808h24.069v12.808c0 4.143 3.358 7.5 7.5 7.5s7.5-3.357 7.5-7.5v-12.808h24.069v12.808c0 4.143 3.358 7.5 7.5 7.5s7.5-3.357 7.5-7.5v-12.808h14.734c4.142 0 7.5-3.357 7.5-7.5s-3.358-7.5-7.5-7.5z"/><path d="m250.975 297.879c0-38.859-31.613-70.474-70.472-70.474s-70.472 31.614-70.472 70.474 31.613 70.475 70.472 70.475 70.472-31.615 70.472-70.475zm-70.471 55.475c-30.587 0-55.472-24.886-55.472-55.475 0-30.588 24.884-55.474 55.472-55.474s55.472 24.886 55.472 55.474c-.001 30.589-24.885 55.475-55.472 55.475z"/><path d="m332.23 227.406c-38.858 0-70.472 31.614-70.472 70.474s31.613 70.475 70.472 70.475c7.377 0 14.647-1.137 21.609-3.377 3.943-1.27 6.11-5.495 4.841-9.438s-5.492-6.106-9.438-4.842c-5.474 1.763-11.198 2.656-17.013 2.656-30.587 0-55.472-24.886-55.472-55.475 0-30.588 24.884-55.474 55.472-55.474s55.472 24.886 55.472 55.474c0 11.516-3.493 22.556-10.102 31.928-2.387 3.386-1.578 8.064 1.808 10.452 3.383 2.385 8.064 1.577 10.451-1.808 8.402-11.916 12.843-25.945 12.843-40.572.001-38.859-31.613-70.473-70.471-70.473z"/><path d="m239.758 356.825-11.436 19.809c-7.113 11.265 1.741 29.095 16.609 28.769h22.872c13.753.385 23.998-15.751 16.609-28.769l-11.436-19.809c-6.442-12.108-26-12.88-33.218 0zm16.609 5.41c.725 0 2.53.204 3.619 2.09l11.436 19.809c.98 2.1.907 5.319-3.619 6.269h-22.872c-3.188-.949-4.558-1.07-3.619-6.269l11.436-19.809c1.089-1.886 2.894-2.09 3.619-2.09z"/><path d="m256.367 132.256c20.443 0 37.075-16.632 37.075-37.075 0-20.444-16.632-37.076-37.075-37.076s-37.075 16.632-37.075 37.076 16.632 37.075 37.075 37.075zm0-59.151c12.172 0 22.075 9.903 22.075 22.076 0 12.172-9.903 22.075-22.075 22.075s-22.075-9.903-22.075-22.075c0-12.173 9.903-22.076 22.075-22.076z"/></g></g></svg>