<?xml version="1.0" encoding="iso-8859-1"?>
<!-- Generator: Adobe Illustrator 19.0.0, SVG Export Plug-In . SVG Version: 6.00 Build 0)  -->
<svg version="1.1" id="Layer_1" xmlns="http://www.w3.org/2000/svg" xmlns:xlink="http://www.w3.org/1999/xlink" x="0px" y="0px"
	 viewBox="0 0 511.991 511.991" style="enable-background:new 0 0 511.991 511.991;" xml:space="preserve">
<polygon style="fill:#ACABB1;" points="232.93,312.757 94.863,450.898 94.769,450.804 66.918,478.655 33.725,445.463 
	199.686,279.513 "/>
<rect x="-2.932" y="329.983" transform="matrix(-0.7025 0.7117 -0.7117 -0.7025 284.088 556.8657)" style="fill:#FF9811;" width="57.166" height="15.657"/>
<g>
	<path style="fill:#FFDA44;" d="M32.818,269.989v-14.541c20.362-8.095,26.12-13.853,34.214-34.214h14.541
		c8.095,20.362,13.853,26.12,34.214,34.214v14.541c-20.362,8.095-26.12,13.853-34.214,34.214H67.032
		C58.938,283.842,53.18,278.084,32.818,269.989z"/>
	<path style="fill:#FFDA44;" d="M69.849,181.95v-14.541c14.312-5.685,18.098-9.472,23.783-23.783h14.541
		c5.685,14.312,9.472,18.098,23.783,23.783v14.541c-14.312,5.685-18.098,9.472-23.783,23.783H93.632
		C87.947,191.422,84.16,187.635,69.849,181.95z"/>
</g>
<g>
	
		<rect x="115.362" y="432.321" transform="matrix(0.7071 0.7071 -0.7071 0.7071 371.7659 51.9445)" style="fill:#FF9811;" width="15.637" height="84.826"/>
	<polygon style="fill:#FF9811;" points="100.516,445.359 67.324,478.551 34.132,445.359 163.949,315.532 175.006,326.599 
		56.257,445.359 67.324,456.416 89.449,434.291 	"/>
	
		<rect x="118.963" y="188.923" transform="matrix(0.7071 -0.7071 0.7071 0.7071 -92.4993 170.1706)" style="fill:#FF9811;" width="80.403" height="15.637"/>
</g>
<path style="fill:#FFDA44;" d="M211.025,461.715h-14.541c-8.095-20.362-13.853-26.12-34.214-34.214v-14.541
	c20.362-8.095,26.12-13.853,34.214-34.214h14.541c8.095,20.362,13.853,26.12,34.214,34.214v14.541
	C224.877,435.595,219.119,441.353,211.025,461.715z"/>
<g>
	
		<rect x="218.097" y="103.793" transform="matrix(-0.7071 -0.7071 0.7071 -0.7071 293.7568 381.6276)" style="fill:#FF9811;" width="15.637" height="52.364"/>
	
		<rect x="196.141" y="469.524" transform="matrix(-0.7071 0.7071 -0.7071 -0.7071 740.9951 647.7559)" style="fill:#FF9811;" width="80.403" height="15.637"/>
	
		<rect x="295.301" y="384.395" transform="matrix(-0.7071 -0.7071 0.7071 -0.7071 227.1369 915.2365)" style="fill:#FF9811;" width="15.637" height="52.364"/>
</g>
<path style="fill:#FFDA44;" d="M330.775,469.288v14.541c-14.312,5.685-18.098,9.461-23.783,23.783h-14.541
	c-5.685-14.322-9.471-18.098-23.783-23.783v-14.541c14.312-5.685,18.098-9.461,23.783-23.783h14.541
	C312.677,459.827,316.463,463.603,330.775,469.288z"/>
<g>
	
		<rect x="301.808" y="265.107" transform="matrix(0.7071 0.7071 -0.7071 0.7071 330.3017 -119.6878)" style="fill:#FF9811;" width="15.637" height="147.517"/>
	
		<rect x="392.3" y="222.2" transform="matrix(0.7071 0.7071 -0.7071 0.7071 292.8247 -210.1771)" style="fill:#FF9811;" width="15.637" height="52.364"/>
	<polygon style="fill:#FF9811;" points="511.986,0.687 496.495,218.803 441.648,163.956 263.149,342.455 252.311,331.617 
		213.455,370.473 202.398,359.416 241.254,320.56 233.285,312.59 115.266,430.599 104.199,419.542 222.217,301.523 211.15,290.455 
		189.766,311.85 178.698,300.782 200.093,279.398 189.484,268.8 129.505,329.249 118.406,318.234 178.427,257.733 163.573,242.889 
		341.853,64.119 340.622,62.888 340.601,62.909 293.88,16.188 	"/>
</g>
<path style="fill:#FF5023;" d="M349.77,49.943l0.021-0.021l41.725,41.725l-0.021,0.021l91.815,91.826l11.798-165.919L329.179,29.362
	L349.77,49.943z"/>
<rect x="380.288" y="150.682" transform="matrix(-0.342 0.9397 -0.9397 -0.342 673.2579 -147.0463)" width="15.647" height="23.022"/>
<rect x="318.679" y="213.668" transform="matrix(-0.342 0.9397 -0.9397 -0.342 649.4471 -5.0798)" width="15.647" height="22.342"/>
<rect x="252.042" y="279.141" transform="matrix(-0.9397 -0.342 0.342 -0.9397 412.8874 646.7267)" width="22.831" height="15.647"/>
<rect x="354.907" y="60.953" transform="matrix(-0.7071 0.7071 -0.7071 -0.7071 671.5394 -130.1771)" width="15.647" height="26.078"/>
<polygon points="511.991,0.686 293.875,16.185 340.601,62.91 351.664,51.846 329.181,29.362 495.104,17.571 486.347,140.798 
	453.453,107.903 442.39,118.967 484.879,161.458 483.312,183.495 384.856,85.038 373.792,96.103 392.471,114.782 345.972,97.857 
	340.62,112.561 418.491,140.904 418.518,140.828 430.587,152.897 385.99,197.494 282.687,159.895 277.336,174.599 373.783,209.702 
	323.62,259.865 220.15,222.204 214.799,236.908 311.412,272.072 263.152,320.331 223.602,280.78 240.139,286.8 245.491,272.096 
	197.42,254.599 185.705,242.884 230.404,198.185 301.848,224.189 307.199,209.485 242.612,185.977 292.775,135.815 363.799,161.667 
	369.151,146.963 304.983,123.607 343.551,85.039 332.488,73.975 163.577,242.884 178.425,257.732 118.402,318.232 129.509,329.251 
	189.488,268.796 200.089,279.395 178.698,300.784 189.762,311.85 211.152,290.46 222.216,301.523 104.201,419.538 115.264,430.603 
	233.281,312.587 241.25,320.557 202.395,359.412 213.458,370.477 252.314,331.621 263.152,342.459 441.651,163.961 496.49,218.8 "/>
<rect x="423.501" y="83.819" transform="matrix(-0.7071 0.7071 -0.7071 -0.7071 804.8046 -139.6462)" width="15.647" height="26.077"/>
<polygon points="89.448,434.29 67.321,456.418 56.257,445.355 175.01,326.602 163.945,315.537 34.129,445.355 67.321,478.546 
	100.512,445.355 "/>
<rect x="-2.929" y="329.992" transform="matrix(-0.7025 0.7117 -0.7117 -0.7025 284.096 556.8689)" width="57.166" height="15.646"/>
<rect x="392.268" y="222.204" transform="matrix(0.7071 0.7071 -0.7071 0.7071 292.8196 -210.1566)" width="15.647" height="52.364"/>
<rect x="301.787" y="265.111" transform="matrix(0.7071 0.7071 -0.7071 0.7071 330.2996 -119.6747)" width="15.647" height="147.517"/>
<rect x="295.314" y="384.391" transform="matrix(-0.7071 -0.7071 0.7071 -0.7071 227.1684 915.2413)" width="15.647" height="52.364"/>
<rect x="196.145" y="469.523" transform="matrix(-0.7071 0.7071 -0.7071 -0.7071 741.0031 647.7592)" width="80.403" height="15.647"/>
<rect x="218.117" y="103.786" transform="matrix(-0.7071 -0.7071 0.7071 -0.7071 293.8032 381.6326)" width="15.647" height="52.364"/>
<rect x="118.96" y="188.915" transform="matrix(0.7071 -0.7071 0.7071 0.7071 -92.4979 170.1673)" width="80.403" height="15.647"/>
<rect x="115.333" y="432.307" transform="matrix(0.7071 0.7071 -0.7071 0.7071 371.7491 51.9576)" width="15.647" height="84.826"/>
<path d="M67.032,304.204h14.541c8.094-20.365,13.848-26.121,34.214-34.214v-14.54c-20.365-8.094-26.121-13.848-34.214-34.214H67.032
	c-8.093,20.365-13.848,26.121-34.214,34.214v14.54C53.184,278.083,58.94,283.838,67.032,304.204z M74.303,242.489
	c5.21,8.993,11.238,15.019,20.23,20.23c-8.993,5.21-15.019,11.238-20.23,20.23c-5.21-8.993-11.238-15.019-20.23-20.23
	C63.065,257.508,69.092,251.482,74.303,242.489z"/>
<path d="M245.238,427.501v-14.54c-20.365-8.094-26.121-13.848-34.214-34.214h-14.54c-8.094,20.365-13.848,26.121-34.214,34.214
	v14.54c20.365,8.094,26.121,13.848,34.214,34.214h14.54C219.117,441.349,224.873,435.594,245.238,427.501z M183.524,420.23
	c8.993-5.21,15.02-11.238,20.23-20.23c5.21,8.992,11.238,15.019,20.23,20.23c-8.993,5.21-15.02,11.238-20.23,20.23
	C198.544,431.468,192.517,425.44,183.524,420.23z"/>
<path d="M93.632,205.732h14.54c5.689-14.316,9.467-18.094,23.783-23.783l-0.001-14.54c-14.316-5.688-18.094-9.466-23.783-23.783
	H93.632c-5.689,14.317-9.467,18.095-23.783,23.783v14.54C84.164,187.638,87.944,191.417,93.632,205.732z M100.902,163.866
	c2.979,4.409,6.405,7.833,10.812,10.812c-4.408,2.98-7.832,6.405-10.812,10.812c-2.98-4.407-6.404-7.832-10.812-10.812
	C94.498,171.699,97.922,168.276,100.902,163.866z"/>
<path d="M306.992,445.506h-14.541c-5.689,14.317-9.467,18.095-23.783,23.783v14.54c14.316,5.688,18.094,9.466,23.783,23.783h14.54
	c5.689-14.317,9.467-18.095,23.783-23.783v-14.54C316.459,463.6,312.681,459.822,306.992,445.506z M299.721,487.37
	c-2.979-4.409-6.404-7.833-10.812-10.812c4.407-2.979,7.832-6.404,10.812-10.812c2.979,4.409,6.404,7.833,10.812,10.812
	C306.125,479.538,302.7,482.962,299.721,487.37z"/>
<g>
</g>
<g>
</g>
<g>
</g>
<g>
</g>
<g>
</g>
<g>
</g>
<g>
</g>
<g>
</g>
<g>
</g>
<g>
</g>
<g>
</g>
<g>
</g>
<g>
</g>
<g>
</g>
<g>
</g>
</svg>
