<svg id="Layer_1" height="512" viewBox="0 0 512 512" width="512" xmlns="http://www.w3.org/2000/svg" data-name="Layer 1"><path d="m0 432h80l300-40h132v120h-512z" fill="#683707"/><path d="m305.6 403.077-225.6 28.923v-344a80 80 0 0 1 80-80h152a80 80 0 0 1 80 80v192" fill="#db8721"/><path d="m328 144h-64v-64h-48v64h-64v40h64v112h48v-112h64z" fill="#8e4f0a" opacity=".66"/><path d="m344.53 63.17 14.63 29.25-14.32 7.16-12.76-25.52-22.81 19.96-10.54-12.04 63.9-55.92a79.994 79.994 0 0 1 11.34 11.35z" fill="#683707" opacity=".66"/><path d="m151.77 357.83 13.58 12.22-10.7 11.9-34.65-31.19v25.24h-16v-39.64l-24-21.6v-21.52l56.27 50.64 54.6-7.8 2.26 15.84z" fill="#683707" opacity=".66"/><g opacity=".66"><path d="m56 472h200v16h-200z" fill="#8e4f0a"/></g><path d="m80 432h-80v26.523h80l432-26.523v-40h-132z" fill="#fff" opacity=".2"/><path d="m384 504v-35.52h58.257a61.743 61.743 0 0 0 61.743-61.743v-27.537a99.2 99.2 0 0 0 -99.952-99.2c-54.7.406-98.448 45.744-98.448 100.443v28.517l-49.6 29.76v65.28z" fill="#c1bfc0"/><g fill="#5b223c"><circle cx="392" cy="368" r="32"/><path d="m280 480h16v24h-16z"/><path d="m311.667 480h16v24h-16z"/><path d="m344 480h16v24h-16z"/></g><g fill="#fff"><path d="m156 8.1a80 80 0 0 0 -76 79.9v344l76-9.744z" opacity=".2"/><path d="m436.833 285.292a99.107 99.107 0 0 0 -32.785-5.292c-54.7.406-98.448 45.744-98.448 100.443v28.517l-49.6 29.76v65.28h55.667v-59.7l24.683-36.3c-8.376-78.192 64.029-111.159 100.483-122.708z" opacity=".2"/></g></svg>